<?xml version="1.0" encoding="utf-8"?><svg xmlns="http://www.w3.org/2000/svg" xmlns:xlink="http://www.w3.org/1999/xlink"><symbol viewBox="0 0 260.67 178.9" id="email" xmlns="http://www.w3.org/2000/svg"><path d="M236.67 0H24A24 24 0 000 24v130.9a24 24 0 0024 24h212.67a24 24 0 0024-24V24a24 24 0 00-24-24zm9 154.9a9 9 0 01-9 9H24a9 9 0 01-9-9V24a9 9 0 019-9h212.67a9 9 0 019 9z"/><path d="M216 42.82h-68.89a6 6 0 000 12H216a6 6 0 100-12zm0 81.26h-68.89a6 6 0 000 12H216a6 6 0 000-12zm0-46.55h-41.68a6 6 0 000 12H216a6 6 0 000-12zm0 23.27h-41.68a6 6 0 000 12H216a6 6 0 000-12zM85.26 42.82a46.63 46.63 0 000 93.26 6 6 0 000-12 34.63 34.63 0 1134.62-34.63v10.16a4.16 4.16 0 11-8.31 0V89.45a26.36 26.36 0 10-8.87 19.68 16.14 16.14 0 0029.19-9.52V89.45a46.69 46.69 0 00-46.63-46.63zm0 61a14.32 14.32 0 1114.31-14.37 14.34 14.34 0 01-14.31 14.32z"/></symbol><symbol id="logo" viewBox="0 0 661.51 160.85" xmlns="http://www.w3.org/2000/svg"><defs><style>.bcls-1,.bcls-2{fill:#2686c6}.bcls-1{fill-rule:evenodd}</style></defs><path class="bcls-1" d="M661.51 144.45v-3.78h-7.42v3.78H558.9v-3.78h-7.41v3.78h-90.34v-3.78h-7.42v3.78h-88.99v-3.78h-7.41v3.78h-88.99v-3.78h-7.41v3.78H178.7v-3.78h-7.42v3.78H82.29v-3.78h-7.41v3.78H0v12.28h74.88v4.12h7.41v-4.12h88.99v4.12h7.42v-4.12h82.23v4.12h7.41v-4.12h88.99v4.12h7.41v-4.12h88.99v4.12h7.42v-4.12h90.34v4.12h7.41v-4.12h95.19v4.12h7.42v-16.4zM25.79 105.93a40.44 40.44 0 01-11.72-9.14 47.67 47.67 0 01-9.54-17.65 77.35 77.35 0 01-3.14-22.62q0-25.32 12.14-40.91T45.75 0q14.76 0 24.68 6.46t15.84 20a74 74 0 015.92 29.94q0 16.5-5.92 29.44a43 43 0 01-18.28 20L88.9 104h4.56v18.87H52.78v-19.96a35.18 35.18 0 009.69-8.57 46.27 46.27 0 007.26-15.89 77.6 77.6 0 002.44-19.72q0-20.16-7.26-30.5T46.38 17.9q-10.77 0-18 10.58T21.1 58.32A74.09 74.09 0 0023.86 79a47.4 47.4 0 007.89 16.17 32.57 32.57 0 009.12 7.76v19.94H0V104h6.21z"/><path class="bcls-2" d="M58.31 63.08C55.94 39.4 43.39 24.35 43.26 24.2l-.44-.52v.69c0 .12 0 12.64-3.17 20.2l-.26.62c-3.06 7.39-6.52 15.81-6.26 26.15.26 10.57 7.37 20.84 7.44 20.94l1 1.46-.57-1.69c0-.12-4.2-12.56 1.09-25a46.7 46.7 0 003.72-16.4c1.65 3 7.05 13.5 6.28 22.38a156.51 156.51 0 01-3.35 20.53l-.14.58.52-.3c.13-.07 11.57-6.99 9.19-30.76zm79.48 59.77q-7.87 0-12.49-2.83a15.78 15.78 0 01-6.6-8.1 36 36 0 01-2-12.63V72.54a35.59 35.59 0 012-12.58 15.34 15.34 0 016.6-8q4.61-2.76 12.49-2.75T150.42 52a15.53 15.53 0 016.64 8 35 35 0 012 12.53v26.76a35.74 35.74 0 01-2 12.63 15.71 15.71 0 01-6.64 8.1q-4.65 2.83-12.63 2.83zm0-10.53A5.82 5.82 0 00142 111a6.48 6.48 0 001.77-3.45 23.68 23.68 0 00.44-4.65V69a22.88 22.88 0 00-.44-4.6A6.53 6.53 0 00142 61a5.86 5.86 0 00-4.17-1.28 5.53 5.53 0 00-4 1.28 6.39 6.39 0 00-1.83 3.4 22.15 22.15 0 00-.45 4.6v33.93a26.32 26.32 0 00.4 4.65 6.17 6.17 0 001.73 3.45 5.63 5.63 0 004.11 1.29zm29.68 9.56V67.66h29.71v54.22h-10.84V75.56h-8v46.32zm44.06 0v-46h-8.37v-8.22h27.71v8.24h-8.23v46zm39.36.74c-4 0-7.12-.72-9.44-2.14a12 12 0 01-5-6.13 27.06 27.06 0 01-1.5-9.54V84.6a26.89 26.89 0 011.5-9.51 11.62 11.62 0 015-6c2.32-1.38 5.46-2.07 9.44-2.07s7.19.7 9.54 2.1a11.8 11.8 0 015 6A26.54 26.54 0 01267 84.6v20.21a27.06 27.06 0 01-1.5 9.54 11.91 11.91 0 01-5 6.13c-2.42 1.42-5.6 2.14-9.61 2.14zm0-8a4.36 4.36 0 003.14-1 4.8 4.8 0 001.34-2.61 17.71 17.71 0 00.34-3.51V81.92a17.26 17.26 0 00-.34-3.48 4.79 4.79 0 00-1.37-2.57 4.36 4.36 0 00-3.14-1 4.16 4.16 0 00-3 1 4.79 4.79 0 00-1.34 2.57 16.57 16.57 0 00-.34 3.48v25.64a19.45 19.45 0 00.3 3.51 4.64 4.64 0 001.31 2.61 4.26 4.26 0 003.1.97zm25.72 7.26V50.13h15.5L301 95.4l9.47-45.27h15v71.75h-10.6V73.25l-9.12 48.63h-9.12l-9.57-49v49zm74.39.74c-4 0-7.12-.72-9.44-2.14a11.89 11.89 0 01-5-6.13 26.82 26.82 0 01-1.51-9.54V84.6a26.65 26.65 0 011.51-9.51 11.56 11.56 0 015-6Q345 67 351 67t9.54 2.1a11.8 11.8 0 015 6 26.53 26.53 0 011.51 9.47v20.21a27.05 27.05 0 01-1.51 9.54 11.91 11.91 0 01-5 6.13c-2.34 1.45-5.54 2.17-9.54 2.17zm0-8a4.39 4.39 0 003.15-1 4.94 4.94 0 001.34-2.61 17.73 17.73 0 00.33-3.51V81.92a17.28 17.28 0 00-.33-3.48 4.93 4.93 0 00-1.34-2.57 4.39 4.39 0 00-3.15-1 4.16 4.16 0 00-3 1 4.79 4.79 0 00-1.34 2.57 17.28 17.28 0 00-.33 3.48v25.64a19.45 19.45 0 00.3 3.51 4.63 4.63 0 001.3 2.61 4.28 4.28 0 003.07.97zm23.56 7.26V67.66h11V90h9.58V67.66h11v54.22h-11v-24h-9.54v24zm40.16 0V67.66h8.84v32.47l14.32-32.47h7.23v54.22h-9v-33l-14.45 33zm43.78 0v-46h-8.37v-8.22h27.71v8.24h-8.23v46zm39.35.74c-4 0-7.12-.72-9.44-2.14a11.89 11.89 0 01-5-6.13 26.82 26.82 0 01-1.51-9.54V84.6a26.65 26.65 0 011.51-9.51 11.56 11.56 0 015-6q3.48-2.09 9.44-2.09t9.54 2.1a11.75 11.75 0 015 6 26.53 26.53 0 011.51 9.47v20.21a27.05 27.05 0 01-1.51 9.54 11.86 11.86 0 01-5 6.13c-2.34 1.45-5.52 2.17-9.54 2.17zm0-8a4.39 4.39 0 003.15-1 4.87 4.87 0 001.34-2.61 17.73 17.73 0 00.33-3.51V81.92a17.28 17.28 0 00-.33-3.48 4.86 4.86 0 00-1.34-2.57 4.39 4.39 0 00-3.15-1 4.16 4.16 0 00-3 1 4.86 4.86 0 00-1.34 2.57 17.28 17.28 0 00-.33 3.48v25.64a19.45 19.45 0 00.3 3.51 4.63 4.63 0 001.3 2.61 4.28 4.28 0 003.07.97zm23.43 7.26V67.66h17.2a15.34 15.34 0 018 1.85 11.77 11.77 0 014.87 5.32c1 2.32 1.22 12.38 1.22 15.68 0 3.88-.66 6.92-2 9.1a10.92 10.92 0 01-5.39 4.65 20.79 20.79 0 01-7.83 1.38h-5v16.24zm11-24h3.89a7.3 7.3 0 003.71-.77 3.93 3.93 0 001.78-2.44 16.4 16.4 0 00.46-4.28c0-1.66-.12-10.29-.36-11.4a4.33 4.33 0 00-1.64-2.62 6.89 6.89 0 00-4-.93h-3.82zm26.08 24V67.66h8.84v32.47l14.32-32.47h7.23v54.22h-9v-33l-14.46 33zm38.82 0V67.66h11.05V90h9.57V67.66h11v54.22h-11v-24h-9.57v24zm40.16 0V67.66h24.17v8.24h-13.12v46z"/></symbol><symbol viewBox="0 0 612 612" id="menu" xmlns="http://www.w3.org/2000/svg"><path d="M535.5 0h-459C34.52 0 0 37.66 0 79.66V536a76 76 0 0076 76h456c42 0 80-34.5 80-76.5v-459c0-42-34.52-76.5-76.5-76.5zm38.25 535.5c0 21-20.75 38.5-41.75 38.5H76a38 38 0 01-38-38V79.66c0-21 17.52-41.41 38.5-41.41h459a38.42 38.42 0 0138.25 38.25v459zM459 382.5H153a19.13 19.13 0 000 38.25h306a19.13 19.13 0 000-38.25zm0-114.75H153a19.13 19.13 0 000 38.25h306a19.13 19.13 0 000-38.25zM459 153H153a19.13 19.13 0 000 38.25h306a19.13 19.13 0 000-38.25z" data-name="5"/></symbol><symbol viewBox="0 0 612 612" id="menu-close" xmlns="http://www.w3.org/2000/svg"><path d="M400.67 211.33a19.1 19.1 0 00-27 0L306 279l-67.63-67.63a19.12 19.12 0 00-27 27L279 306l-67.63 67.63a19.12 19.12 0 0027 27L306 333l67.63 67.61a19.12 19.12 0 0027-27L333 306l67.63-67.61a19.16 19.16 0 00.04-27.06zM535.5 0h-459A76.5 76.5 0 000 76.5v459A76.5 76.5 0 0076.5 612h459a76.5 76.5 0 0076.5-76.5v-459A76.5 76.5 0 00535.5 0zm38.25 535.5a38.24 38.24 0 01-38.25 38.25h-459a38.24 38.24 0 01-38.25-38.25v-459A38.24 38.24 0 0176.5 38.25h459a38.26 38.26 0 0138.25 38.25z" data-name="3"/></symbol><symbol viewBox="0 0 434.89 496" id="phone" xmlns="http://www.w3.org/2000/svg"><path d="M417.26 390.19a87.82 87.82 0 00-59-69l-8.21-2.74a74 74 0 0018-18l4.19-6.29-6-4.54a72.09 72.09 0 01-22.8-28.83l-14.67 6.41a88.26 88.26 0 0021.47 29.91c-5.05 5.51-13.93 13-23.81 13.46l-37-12.34V288h-15.99v15l-11.93 47.75L229.2 312h-23.51l-32.31 38.78L161.44 303v-15h-16v10.23l-37 12.33c-10-.3-18.81-7.9-23.85-13.43A88.48 88.48 0 00113.44 232h-16a72.34 72.34 0 01-28.8 57.6l-6 4.54 4.19 6.29a74.48 74.48 0 0018 18l-8.2 2.74a87.82 87.82 0 00-59 69L0 496h434.88zm-59 89.81a80.89 80.89 0 003.18-24c0-27-17.59-44.9-18.34-45.66l-11.31 11.32c.13.14 13.65 13.88 13.65 34.34 0 13.27-2.64 20.62-4.31 24H225.44V344h-16v136H93.79c-1.74-3.47-4.35-10.82-4.35-24 0-20.21 13.55-34.22 13.68-34.37L97.44 416l-5.65-5.66c-.75.76-18.35 18.66-18.35 45.66a80.84 80.84 0 003.2 24H18.89l14.55-87.18a71.9 71.9 0 0148.26-56.47l29.24-9.74h.45v-.13l36.42-12.14 17.73 70.9L213.2 328h8.49l47.69 57.22 17.73-70.9 36.33 12.12v.2h.67l29.09 9.7a71.87 71.87 0 0148.24 56.49L416 480z"/><path d="M241.45 392h16v16h-16zm0 56h16v16h-16zM89.44 216h27.65a87.56 87.56 0 0022.13 37.09l31.22 31.19A39.76 39.76 0 00198.7 296h37.49a39.78 39.78 0 0028.25-11.72L284.76 264h12.68a40 40 0 0040-40v-8h8a40 40 0 0040-40v-32a40 40 0 00-40-40h-9.32C328.22 45.13 277.55 0 217.44 0S106.67 45.13 98.76 104h-9.32a40 40 0 00-40 40v32a40 40 0 0040 40zm264-94.52a23.94 23.94 0 0116 22.52v32a24 24 0 01-16 22.53zm-69.08 120.3l-6.23 6.22h-84.69v16h68.69l-9 9a23.85 23.85 0 01-17 7H198.7a23.86 23.86 0 01-17-7l-31.19-31.19a71.57 71.57 0 01-21.07-50.95V184a48.05 48.05 0 0148-48h14a62.3 62.3 0 0037.15-12.38l11.31-8.48A61.74 61.74 0 00286.28 136h19.16v54.86a71.57 71.57 0 01-21.08 50.92zm37.08-50.92V120h16v80h-16zm0 33.14a24 24 0 01-20.87 23.69A87.29 87.29 0 00317.8 216h3.64zm-104-208c51.36 0 94.83 38 102.6 88h-14.6v16h-19.16a45.78 45.78 0 01-38.18-20.44l-4.69-7-24.39 18.3a46.19 46.19 0 01-27.58 9.14h-14a63.8 63.8 0 00-48 21.81V104h-14.59c7.77-50 51.23-88 102.59-88zm-120 104h16v80h-16zm-32 24a24 24 0 0116-22.53v77.05a24 24 0 01-16-22.52z"/></symbol><symbol viewBox="0 0 717.5 496" id="skms" xmlns="http://www.w3.org/2000/svg"><path d="M172.43 36.5h16v16h-16zm145.74 0h16v16h-16zm-72.87 0h16v16h-16zm145.73 0h16v16h-16zm145.74 0h16v16h-16zm-72.87 0h16v16h-16zm145.73 0h16v16h-16zm72.87 0h16v16h-16zM172.43 389.35h16v16h-16zm145.74 0h16v16h-16zm-72.87 0h16v16h-16zm145.73 0h16v16h-16zm145.74 0h16v16h-16zm-72.87 0h16v16h-16zm145.73 0h16v16h-16zm72.87 0h16v16h-16zM318.17 271.73h16v16h-16zm72.86 0h16v16h-16zm145.74 0h16v16h-16zm-72.87 0h16v16h-16zm145.73 0h16v16h-16zm72.87 0h16v16h-16zM318.17 154.12h16v16h-16zm72.86 0h16v16h-16zm145.74 0h16v16h-16zm-72.87 0h16v16h-16zm145.73 0h16v16h-16zm72.87 0h16v16h-16zM191.43 448.16h16v16h-16zm72.87 0h16v16h-16zm145.73 0h16v16h-16zm-67.48 0h16v16h-16zm213.22 0h16v16h-16zm-72.87 0h16v16h-16zm145.73 0h16v16h-16zm72.87 0h16v16h-16zM410.03 330.54h16v16h-16zm-67.48 0h16v16h-16zm213.22 0h16v16h-16zm-72.87 0h16v16h-16zm145.73 0h16v16h-16zm72.87 0h16v16h-16zM410.03 212.93h16v16h-16zm-67.48 0h16v16h-16zm213.22 0h16v16h-16zm-72.87 0h16v16h-16zm145.73 0h16v16h-16zm72.87 0h16v16h-16zM191.43 95.31h16v16h-16zm72.87 0h16v16h-16zm145.73 0h16v16h-16zm-67.48 0h16v16h-16zm213.22 0h16v16h-16zm-72.87 0h16v16h-16zm145.73 0h16v16h-16zm72.87 0h16v16h-16zM72 40h16v16H72zm-24 0h16v16H48zm24 400h16v16H72zm-24 0h16v16H48z"/><path d="M112 375V88h44V72h-44V0H96v72H40V0H24v72H0v16h24v320H0v16h24v72h16v-72h56v72h16v-72h44v-16h-44v-33zm-16 33H40V88h56v320z"/><path d="M126.76 0v495.5h9.26V0h-9.26zm60.44 247.5c0-16.21-7-30.05-18.19-36.13a5 5 0 00-4.76 8.78c7.87 4.27 13 15 13 27.35s-5.09 23.08-13 27.34a5 5 0 00-2.62 4.4 5 5 0 007.38 4.39c11.22-6.08 18.19-19.93 18.19-36.13z"/><path d="M180.98 298.5a5 5 0 104.75 8.78c18.38-9.99 29.77-32.89 29.77-59.78s-11.41-49.79-29.79-59.75a5 5 0 00-4.75 8.79c15.14 8.2 24.55 27.73 24.55 51s-9.38 42.71-24.53 50.96z"/><path d="M192.07 164.73a5 5 0 002 6.77c22.72 12.32 36.83 41.44 36.83 76s-14.11 63.67-36.83 76a5 5 0 004.76 8.78c25.94-14.07 42.06-46.56 42.06-84.78s-16.12-70.71-42.06-84.78a5 5 0 00-6.76 2.01z"/></symbol><symbol viewBox="0 0 730.17 496" id="smpo" xmlns="http://www.w3.org/2000/svg"><path d="M186.27 131.13c-16.2 0-30 7-36.12 18.19a5 5 0 008.78 4.76c4.26-7.87 15-13 27.34-13s23.08 5.09 27.35 13a5 5 0 108.78-4.76c-6.08-11.22-19.92-18.19-36.13-18.19z"/><path d="M237.24 137.35a5 5 0 008.78-4.75c-10-18.38-32.85-29.79-59.75-29.79s-49.79 11.41-59.74 29.79a5 5 0 008.78 4.75c8.21-15.14 27.74-24.55 51-24.55s42.72 9.4 50.93 24.55z"/><path d="M103.5 126.26a5 5 0 006.77-2c12.33-22.72 41.45-36.83 76-36.83s63.68 14.11 76 36.83a5 5 0 008.78-4.76c-14.07-25.94-46.56-42.06-84.78-42.06s-70.7 16.12-84.78 42.06a5 5 0 002.01 6.76zm441.7 3.87c-16.2 0-30 7-36.13 18.19a5 5 0 008.78 4.76c4.27-7.87 15-13 27.35-13s23.08 5.09 27.35 13a5 5 0 008.78-4.76c-6.08-11.22-19.91-18.19-36.13-18.19z"/><path d="M596.16 136.35a5 5 0 004.4 2.62 5 5 0 004.38-7.37c-9.95-18.38-32.84-29.79-59.74-29.79s-49.78 11.41-59.78 29.79a5 5 0 008.78 4.75c8.21-15.14 27.73-24.55 51-24.55s42.76 9.4 50.96 24.55z"/><path d="M462.42 125.26a5 5 0 006.77-2c12.32-22.72 41.45-36.83 76-36.83s63.68 14.11 76 36.83a5 5 0 008.78-4.76c-14.06-25.95-46.55-42.07-84.77-42.07s-70.71 16.12-84.78 42.06a5 5 0 002 6.77zM266.74 254.27h16v16h-16zm59.47 0h16v16h-16zm118.94 0h16v16h-16zm-59.47 0h16v16h-16zm-356.82 0h16v16h-16zm118.94 0h16v16h-16zm59.47 0h16v16h-16zm356.82 0h16v16h-16zm-59.47 0h16v16h-16zm178.4 0h16v16h-16zm-24.97-24.33H.41v9.26h729.14v-9.26h-71.5zM476.17 444.27h16v16h-16zm-59.47 0h16v16h-16zm-118.94 0h16v16h-16zm59.47 0h16v16h-16zm356.82 0h16v16h-16zm-118.94 0h16v16h-16zm-59.47 0h16v16h-16zm118.94 0h16v16h-16zm-475.76 0h16v16h-16zm59.47 0h16v16h-16zm-118.94 0h16v16h-16zm-118.93 0h16v16h-16zm59.46 0h16v16h-16zM447.73 480h16v16h-16zm-59.47 0h16v16h-16zm-118.94 0h16v16h-16zm59.47 0h16v16h-16zm356.81 0h16v16h-16zm-118.93 0h16v16h-16zm-59.47 0h16v16h-16zm118.94 0h16v16h-16zm-475.76 0h16v16h-16zm59.47 0h16v16h-16zm-118.94 0h16v16h-16zm-59.47 0h16v16h-16zm416.29-71.46h16v16h-16zm-59.47 0h16v16h-16zm-118.94 0h16v16h-16zm59.47 0h16v16h-16zm356.81 0h16v16h-16zm-118.93 0h16v16h-16zm-59.47 0h16v16h-16zm118.94 0h16v16h-16zm-475.76 0h16v16h-16zm59.47 0h16v16h-16zm-118.94 0h16v16h-16zm-59.47 0h16v16h-16zm385.26-292.4h16v16h-16zm-118.94 0h16v16h-16zm59.47 0h16v16h-16zm356.82 0h16v16h-16zm-59.47 0h16v16h-16zm-654.16 0h16v16h-16zm59.46 0h16v16h-16zm415.88 77.43h16v16h-16zm-59.47 0h16v16h-16zm-118.94 0h16v16h-16zm59.47 0h16v16h-16zm356.81 0h16v16h-16zm-118.94 0h16v16h-16zm-59.46 0h16v16h-16zm118.93 0h16v16h-16zm-475.75 0h16v16h-16zm59.47 0h16v16h-16zm-118.94 0h16v16h-16zM0 193.57h16v16H0zm59.47 0h16v16h-16zm388.26-38.71h16v16h-16zm-59.47 0h16v16h-16zm-118.94 0h16v16h-16zm59.47 0h16v16h-16zm356.81 0h16v16h-16zm-59.46 0h16v16h-16zm-535.23 0h16v16h-16zm-59.47 0h16v16h-16zM476.17 0h16v16h-16zM416.7 0h16v16h-16zM297.76 0h16v16h-16zm59.47 0h16v16h-16zm356.82 0h16v16h-16zM595.11 0h16v16h-16zm-59.47 0h16v16h-16zm118.94 0h16v16h-16zM178.82 0h16v16h-16zm59.47 0h16v16h-16zM119.35 0h16v16h-16zM.42 0h16v16h-16zm59.46 0h16v16h-16zm356.41 77.43h16v16h-16zm-118.94 0h16v16h-16zm59.47 0h16v16h-16zm356.81 0h16v16h-16zm-59.47 0h16v16h-16zM0 77.43h16v16H0zm59.47 0h16v16h-16zm388.26-38.72h16v16h-16zm-59.47 0h16v16h-16zm-118.94 0h16v16h-16zm59.47 0h16v16h-16zm356.81 0h16v16h-16zm-118.93 0h16v16h-16zm-59.47 0h16v16h-16zm118.94 0h16v16h-16zm-475.76 0h16v16h-16zm59.47 0h16v16h-16zm-118.94 0h16v16h-16zm-59.47 0h16v16h-16z"/><path d="M609.18 292h-520v-24h-16v24h-72v16h72v56h-72v16h72v24h16v-24h553v24h16v-24h72v-16h-72v-56h72v-16h-72v-24h-16v24h-33zm33 16v56h-553v-56h553z"/></symbol></svg>